<?xml version="1.0" standalone="no"?>
<!DOCTYPE svg PUBLIC "-//W3C//DTD SVG 20010904//EN"
 "http://www.w3.org/TR/2001/REC-SVG-20010904/DTD/svg10.dtd">
<svg version="1.0" xmlns="http://www.w3.org/2000/svg"
 width="1280.000000pt" height="800.000000pt" viewBox="0 0 1280.000000 800.000000"
 preserveAspectRatio="xMidYMid meet">

<g transform="translate(0.000000,800.000000) scale(0.100000,-0.100000)"
fill="#000000" stroke="none">
<path d="M6507 6368 c-10 -5 -25 -8 -35 -7 -9 1 -30 -3 -45 -9 -16 -7 -41 -12
-56 -12 -16 0 -34 -7 -41 -15 -7 -8 -19 -15 -26 -15 -8 0 -42 -13 -77 -30 -42
-20 -68 -40 -81 -62 -11 -18 -31 -45 -45 -61 -14 -16 -25 -34 -23 -39 1 -6 -3
-17 -9 -25 -10 -11 -14 -11 -20 -1 -11 18 -57 -87 -61 -137 -1 -22 -1 -60 0
-84 2 -42 3 -44 18 -25 8 10 12 13 8 5 -5 -9 -3 -12 4 -7 7 4 12 14 12 22 0 8
4 13 8 10 4 -3 19 14 33 36 38 63 170 117 295 120 29 1 51 5 49 8 -2 3 14 4
36 2 25 -3 59 4 92 17 35 14 63 19 87 15 19 -3 65 -5 101 -4 60 1 67 -1 72
-20 3 -12 10 -19 16 -15 6 3 11 1 11 -4 0 -6 9 -11 20 -11 23 0 92 -35 84 -42
-2 -3 2 -11 11 -18 8 -7 15 -18 15 -25 0 -7 6 -18 14 -24 8 -7 27 -36 41 -64
45 -86 48 -83 41 48 -8 171 -34 234 -140 332 -58 54 -71 61 -192 101 -137 46
-190 56 -217 40z"/>
<path d="M6255 5740 c-16 -4 -45 -14 -62 -23 -18 -10 -53 -20 -78 -23 -33 -5
-46 -12 -51 -27 -4 -12 -13 -27 -20 -35 -21 -20 -17 -38 4 -19 28 25 41 21 46
-15 19 -130 19 -131 60 -154 21 -12 64 -25 94 -29 38 -5 51 -10 41 -16 -11 -7
-11 -9 4 -9 9 0 17 5 17 10 0 6 13 10 28 10 15 0 45 9 66 20 22 10 42 17 46
15 4 -3 23 29 41 70 42 93 60 97 94 23 14 -29 25 -57 25 -63 0 -5 9 -21 20
-35 16 -21 20 -22 20 -7 0 15 3 16 23 5 13 -7 60 -12 117 -13 123 0 172 19
189 75 6 20 11 45 11 54 0 24 19 19 32 -9 8 -18 19 -25 40 -25 25 0 28 3 28
36 0 39 -12 67 -43 101 -17 19 -23 21 -35 10 -13 -10 -15 -9 -10 5 7 18 -9 28
-45 28 -13 0 -38 11 -57 24 -31 20 -44 23 -110 19 -91 -4 -145 -18 -170 -43
-44 -44 -83 -45 -153 -1 -18 11 -64 25 -102 31 -37 6 -71 12 -74 14 -3 1 -19
0 -36 -4z m44 -64 c11 -7 2 -46 -10 -46 -5 0 -17 -7 -26 -15 -10 -9 -31 -26
-48 -39 -16 -14 -27 -28 -22 -32 4 -4 18 3 32 16 27 26 27 26 45 -10 8 -16 9
-25 2 -28 -5 -1 -7 -12 -5 -23 5 -16 11 -19 30 -14 19 4 26 1 30 -15 7 -27 23
-25 52 5 13 14 27 25 32 25 5 0 9 7 9 15 0 8 5 24 12 35 10 15 9 26 -5 54 -17
37 -14 45 18 42 52 -5 57 -30 19 -110 -41 -88 -59 -99 -156 -99 -119 1 -166
15 -184 58 -8 19 -14 61 -14 93 0 62 13 84 55 95 23 7 120 1 134 -7z m615 5
c47 -12 56 -20 59 -57 l2 -29 -53 3 c-55 4 -173 40 -137 42 15 1 16 3 5 7 -8
3 -21 10 -28 16 -11 9 -11 12 5 18 26 11 101 10 147 0z m-224 -23 c0 -7 -7
-22 -15 -32 -20 -27 -19 -47 7 -95 23 -43 45 -58 62 -41 5 5 20 10 33 10 13 0
23 4 23 8 0 5 6 16 13 25 14 20 146 52 160 38 15 -15 -12 -90 -40 -108 -40
-26 -223 -32 -259 -8 -23 15 -84 124 -84 151 0 6 11 23 25 38 25 27 75 36 75
14z m367 -46 c18 -15 19 -21 9 -40 l-11 -22 -33 20 c-30 19 -40 39 -25 53 12
12 40 7 60 -11z m-323 -37 c3 -8 1 -15 -4 -15 -6 0 -10 7 -10 15 0 8 2 15 4
15 2 0 6 -7 10 -15z"/>
<path d="M6200 5672 c-35 -5 -50 -22 -19 -22 24 0 58 16 49 22 -3 2 -16 2 -30
0z"/>
<path d="M5990 5525 c0 -25 -14 -33 -25 -15 -3 6 -12 10 -18 10 -7 0 -1 -9 11
-18 31 -24 63 -21 74 7 5 14 4 20 -2 16 -6 -4 -13 1 -16 9 -9 25 -24 19 -24
-9z"/>
<path d="M7125 5490 c-8 -13 4 -88 15 -95 8 -5 20 42 20 81 0 24 -23 33 -35
14z"/>
<path d="M5906 5443 c10 -58 21 -73 29 -41 10 39 2 72 -18 76 -16 3 -17 -1
-11 -35z"/>
<path d="M7056 5378 c9 -96 -30 -288 -57 -288 -5 0 -9 -6 -9 -14 0 -9 -7 -12
-20 -9 -15 4 -20 0 -20 -16 0 -11 -4 -21 -10 -21 -5 0 -10 -10 -10 -22 0 -16
-3 -19 -11 -11 -12 12 -52 5 -43 -8 3 -5 -1 -9 -9 -9 -8 0 -22 -16 -31 -35
-10 -20 -21 -33 -25 -31 -9 6 -31 -30 -35 -57 -1 -10 -6 -17 -11 -16 -4 0 -11
-5 -16 -12 -8 -13 -19 -16 -80 -20 -31 -3 -44 3 -69 26 -26 25 -34 27 -48 17
-55 -38 -87 -47 -157 -43 -24 1 -47 35 -52 76 -5 45 -11 56 -30 54 -33 -3 -42
1 -37 16 4 8 1 15 -7 15 -7 0 -10 3 -6 6 11 12 -34 52 -54 47 -11 -3 -19 0
-19 8 0 7 -3 10 -6 6 -4 -3 -13 1 -22 9 -8 9 -23 13 -33 11 -12 -3 -16 0 -12
10 5 12 1 14 -16 8 -12 -3 -20 -3 -19 2 1 4 -5 22 -14 38 -28 54 -61 202 -55
252 4 38 3 43 -6 27 -20 -34 -21 -63 -13 -194 9 -127 62 -280 144 -413 15 -25
20 -43 14 -50 -5 -7 -10 -19 -10 -27 0 -8 -12 -46 -26 -83 -15 -38 -28 -85
-30 -105 -5 -57 -46 -124 -89 -145 -51 -25 -69 -16 -23 11 20 12 35 26 32 31
-3 5 1 11 9 15 8 3 15 10 15 16 0 11 -195 -83 -205 -100 -3 -6 20 1 52 16 80
36 83 37 83 31 0 -9 -84 -54 -125 -67 -46 -14 -111 -47 -139 -70 -18 -14 -18
-14 -8 5 5 11 20 29 31 39 12 11 21 29 21 40 0 12 5 28 10 36 8 12 10 11 10
-7 0 -30 5 -29 49 6 20 16 68 42 106 57 74 29 95 41 95 55 0 10 -79 -17 -100
-35 -33 -28 -43 -26 -12 3 18 17 28 31 24 31 -23 0 -178 -91 -186 -109 -11
-26 -22 -27 -35 -3 -9 15 -13 14 -42 -13 -18 -16 -29 -25 -25 -18 10 18 -39
28 -72 14 -15 -6 -40 -15 -57 -21 -17 -7 -25 -14 -19 -18 7 -4 8 -15 3 -27 -7
-19 -8 -19 -8 2 -1 21 -5 22 -48 17 -27 -3 -59 -7 -72 -10 -23 -5 -23 -5 -5
-27 17 -19 17 -20 1 -8 -16 13 -20 12 -33 -7 -12 -18 -19 -20 -35 -12 -17 10
-22 7 -21 -11 0 -3 -33 -41 -75 -84 -69 -73 -74 -82 -71 -115 3 -30 0 -36 -13
-33 -12 3 -18 -4 -23 -27 -5 -28 -8 -31 -21 -20 -24 20 -29 5 -18 -48 7 -38 6
-54 -4 -67 -15 -22 -18 -20 -37 25 l-14 35 -7 -28 c-5 -18 0 -45 15 -82 12
-30 18 -59 14 -67 -4 -7 -7 -27 -6 -45 2 -18 -1 -33 -6 -33 -4 0 -8 -21 -7
-47 0 -30 -5 -52 -14 -59 -8 -6 -14 -29 -14 -52 0 -28 -5 -43 -16 -47 -13 -5
-14 -7 -1 -16 13 -8 12 -11 -3 -23 -13 -10 -19 -31 -22 -74 -2 -49 -8 -68 -33
-99 -31 -38 -69 -120 -60 -129 3 -2 26 15 53 38 38 33 46 37 41 20 -7 -20 -5
-21 33 -18 23 2 41 0 41 -5 0 -5 -11 -9 -24 -9 -37 0 -67 -14 -109 -51 -34
-30 -39 -40 -43 -89 -2 -30 -7 -67 -10 -82 -6 -32 9 -37 36 -13 15 13 90 49
90 42 0 -1 -26 -22 -59 -45 -39 -29 -68 -60 -86 -93 -24 -45 -26 -57 -21 -107
13 -109 35 -132 86 -92 43 34 42 22 -4 -37 -42 -54 -45 -64 -52 -136 -5 -61
-11 -81 -25 -90 -14 -9 -19 -24 -19 -54 0 -37 4 -45 29 -58 40 -20 91 -98 91
-138 0 -38 13 -26 28 28 13 45 116 169 179 214 62 45 132 71 203 77 36 3 90
12 120 19 30 8 85 17 123 21 37 4 67 9 67 11 0 3 -9 18 -21 34 -13 18 -18 36
-14 49 5 14 2 20 -9 20 -9 0 -16 5 -16 10 0 6 16 10 35 10 43 0 44 8 5 45 -37
35 -37 43 -3 51 15 4 34 13 41 21 19 19 66 16 86 -5 9 -11 31 -63 50 -118 46
-134 44 -131 74 -143 77 -31 332 -44 542 -26 41 3 104 8 140 11 36 2 79 9 95
14 17 5 51 9 78 8 36 -1 47 -5 47 -17 1 -14 2 -14 14 2 9 12 43 21 117 32 57
9 136 21 174 26 96 15 262 6 306 -16 19 -10 51 -35 72 -57 35 -37 37 -43 33
-91 -2 -29 -13 -73 -24 -98 -19 -43 -24 -47 -79 -62 -75 -21 -141 -22 -182 -1
-42 21 -63 24 -80 10 -11 -8 -15 -8 -18 2 -6 17 -28 15 -48 -4 -11 -11 -19
-13 -28 -6 -7 6 -18 7 -26 2 -8 -4 -21 -6 -29 -2 -11 4 -14 1 -9 -11 7 -19 10
-19 -61 -21 -33 0 -56 -6 -61 -15 -5 -7 -13 -11 -19 -7 -6 3 -13 2 -17 -4 -12
-20 -27 -10 -23 15 5 25 -5 34 -17 15 -3 -5 -12 -7 -21 -3 -8 3 -21 -2 -28
-12 -7 -10 -26 -19 -42 -21 -16 -2 -35 -11 -42 -21 -12 -17 -14 -17 -23 -1 -5
10 -16 15 -24 12 -8 -4 -13 -10 -10 -14 3 -5 -3 -7 -12 -5 -10 1 -29 -4 -42
-12 -21 -13 -25 -13 -38 0 -12 12 -21 12 -46 3 -18 -6 -38 -17 -45 -24 -15
-14 -26 -16 -18 -3 6 10 -43 9 -59 -1 -5 -3 -25 -9 -42 -13 -18 -3 -33 -10
-33 -14 0 -5 -18 -8 -40 -8 -22 0 -46 -6 -54 -12 -11 -10 -15 -9 -18 5 -3 16
-4 16 -20 1 -12 -12 -18 -13 -21 -4 -4 9 -7 9 -18 0 -16 -15 -33 -17 -24 -3 4
6 -7 8 -32 4 -21 -4 -44 -7 -52 -7 -7 0 -31 -17 -52 -38 -22 -21 -39 -34 -39
-29 0 5 5 12 10 15 6 3 10 11 10 18 0 8 -3 8 -12 -1 -21 -21 -29 -13 -13 12
16 23 15 24 -4 19 -14 -3 -21 -1 -21 8 0 8 -9 -1 -20 -19 -11 -18 -25 -30 -31
-26 -6 3 -13 -3 -16 -14 -7 -27 -29 -35 -47 -17 -12 13 -19 13 -50 0 -22 -9
-36 -11 -36 -5 0 6 -11 4 -24 -5 -58 -38 -316 -37 -316 1 0 10 -10 14 -30 12
-16 -1 -30 -5 -30 -9 0 -3 -12 -11 -26 -17 -14 -7 -23 -8 -19 -2 14 22 -16 8
-31 -15 -9 -14 -23 -25 -32 -25 -12 0 -13 -3 -4 -12 7 -7 12 -25 12 -40 0 -24
8 -32 31 -30 3 1 5 -10 3 -23 -2 -20 3 -25 19 -26 12 0 45 -2 72 -4 28 -2 78
-4 112 -5 42 -1 70 -7 84 -19 l21 -17 -20 -42 c-11 -23 -23 -61 -27 -85 -3
-23 -9 -50 -12 -61 -4 -13 -2 -16 8 -11 9 6 11 3 6 -9 -4 -9 -1 -26 5 -36 10
-15 10 -27 1 -50 -7 -19 -8 -28 -1 -24 6 4 8 -1 5 -12 -4 -11 -9 -31 -13 -46
-3 -16 -10 -26 -14 -23 -14 8 -17 -42 -13 -178 6 -216 5 -264 -6 -285 -6 -12
-11 -31 -11 -43 0 -18 6 -13 30 25 17 26 48 65 70 87 33 34 43 39 55 29 12
-10 17 -7 26 14 7 14 16 26 20 26 4 0 15 3 25 7 32 12 -13 -48 -73 -97 -30
-25 -66 -64 -81 -88 -15 -23 -37 -45 -50 -49 -23 -5 -23 -8 -19 -100 3 -78 0
-102 -15 -131 -10 -20 -18 -44 -18 -54 0 -9 -4 -19 -9 -22 -5 -3 -11 -24 -13
-45 -2 -22 0 -37 4 -35 7 5 6 -3 -8 -96 -7 -50 -9 -52 -15 -25 -5 21 -7 5 -9
-50 -1 -44 -3 -97 -4 -118 -2 -20 1 -37 6 -37 4 0 8 12 8 27 0 14 3 23 7 20 3
-4 15 0 25 10 26 24 25 -6 -2 -35 l-21 -22 1361 0 c1293 0 1360 1 1360 18 0 9
-9 35 -21 56 -12 23 -24 72 -30 125 -5 47 -11 97 -14 111 -3 14 -8 36 -10 50
-15 73 -22 147 -15 165 37 100 9 281 -78 495 -24 60 -26 75 -25 215 1 190 11
324 28 351 13 20 38 28 125 38 14 2 42 7 62 11 35 7 36 8 26 33 -22 56 -31 71
-40 66 -5 -3 -16 0 -25 8 -17 13 -37 17 -143 22 -74 3 -100 -2 -78 -15 10 -7
10 -9 0 -9 -7 0 -15 7 -19 16 -3 8 -15 14 -27 12 -11 -1 -27 1 -33 5 -7 5 -13
5 -13 0 0 -4 -5 -1 -10 7 -7 11 -10 11 -10 2 0 -7 -4 -10 -10 -7 -5 3 -10 1
-10 -4 0 -6 -5 -11 -11 -11 -5 0 -7 5 -3 12 5 7 3 8 -6 3 -7 -4 -16 -2 -21 6
-6 10 -9 11 -9 2 0 -7 -5 -13 -11 -13 -5 0 -8 4 -4 9 3 5 1 13 -5 16 -6 4 -10
3 -9 -2 3 -20 -2 -27 -11 -13 -8 13 -10 13 -10 -1 0 -27 -62 -16 -66 12 -1 5
-2 15 -3 22 -1 8 -5 8 -14 -3 -15 -18 -62 -46 -53 -32 9 15 -36 23 -52 10 -10
-9 -16 -8 -23 3 -6 10 -9 11 -9 1 0 -7 -4 -11 -9 -8 -5 4 -12 0 -15 -6 -3 -7
-3 -3 0 9 4 19 2 22 -13 16 -10 -4 -20 -10 -23 -14 -3 -5 -18 -2 -33 6 -15 8
-25 9 -21 4 4 -6 -5 -4 -18 5 -25 16 -25 16 -21 -7 3 -15 0 -24 -9 -24 -7 0
-21 -4 -31 -8 -14 -6 -16 -4 -10 11 4 12 3 15 -5 10 -7 -4 -12 -2 -12 6 0 10
-3 9 -9 -2 -6 -8 -8 -17 -5 -21 5 -9 -25 -21 -37 -13 -5 3 -6 11 -3 17 4 7 4
9 -1 5 -4 -4 -14 -3 -22 3 -7 6 -13 8 -13 3 0 -5 -5 -2 -10 6 -8 12 -10 10
-10 -10 -1 -25 -1 -25 -10 -2 -5 12 -14 22 -20 22 -7 0 -8 -6 0 -19 5 -11 7
-26 4 -35 -6 -15 -3 -17 -65 37 -21 19 -21 19 -14 -2 4 -15 2 -21 -9 -21 -9 0
-13 6 -10 14 3 7 -3 16 -13 20 -15 6 -15 8 -3 16 12 8 12 10 1 10 -8 0 -11 6
-7 16 6 14 4 15 -10 3 -10 -8 -14 -23 -12 -41 4 -27 3 -28 -24 -23 -18 4 -28
3 -28 -5 0 -6 -4 -9 -10 -5 -5 3 -6 13 -3 22 4 9 2 14 -3 11 -5 -4 -9 5 -9 18
0 25 9 31 20 14 3 -6 12 -10 18 -10 7 0 4 5 -5 11 -11 6 -18 21 -18 37 l1 27
15 -30 c8 -16 12 -23 10 -15 -6 26 20 53 43 45 12 -3 21 -2 21 3 0 14 85 9
104 -7 14 -12 16 -11 16 5 0 17 1 17 15 -2 10 -13 14 -14 13 -4 -2 8 6 16 20
18 12 2 22 -2 22 -8 0 -6 5 -8 10 -5 6 4 8 10 5 15 -12 20 17 20 46 0 35 -26
38 -25 41 17 2 32 21 38 39 12 8 -10 9 -8 4 9 -5 16 -2 22 9 22 9 0 15 -3 15
-7 -4 -27 2 -34 17 -19 8 9 19 16 24 16 5 0 7 6 4 14 -3 8 -1 23 5 33 6 11 11
13 12 6 1 -7 2 -17 3 -22 3 -26 16 -20 16 7 0 18 5 32 10 32 6 0 10 5 10 11 0
6 -7 9 -15 5 -18 -7 -21 29 -3 40 7 4 8 3 4 -4 -4 -7 -2 -12 3 -12 6 0 11 9
11 20 0 11 1 20 3 20 1 1 20 3 42 6 22 4 44 13 50 21 6 8 25 16 41 17 16 1 35
5 42 9 7 5 44 17 84 28 39 11 80 26 92 34 22 16 92 20 100 6 3 -4 25 -11 49
-14 45 -6 213 -72 324 -128 34 -17 84 -52 111 -79 l48 -48 12 27 c22 47 67
127 88 157 35 48 48 100 34 135 -7 16 -22 36 -34 45 -20 14 -21 22 -23 287 -1
209 2 275 12 287 15 18 18 80 4 97 -6 6 -13 39 -15 72 -3 33 -11 73 -19 88 -9
16 -15 56 -15 93 0 86 -23 157 -64 200 -29 30 -35 44 -39 95 -3 33 -8 74 -11
90 -17 80 -26 142 -26 177 0 21 -9 56 -20 78 -11 22 -20 47 -20 57 0 33 -81
176 -141 249 -74 91 -107 111 -192 120 -52 5 -68 11 -72 25 -6 19 -18 23 -89
33 -21 3 -48 14 -60 25 -23 21 -73 47 -221 116 -108 50 -237 128 -352 213 -72
52 -83 65 -63 77 11 7 60 96 72 130 48 141 53 174 44 313 -4 58 -2 74 10 79
21 8 17 35 -9 64 -13 13 -27 31 -30 39 -4 8 -4 -15 -1 -52z m-105 -381 c-10
-9 -11 -8 -5 6 3 10 9 15 12 12 3 -3 0 -11 -7 -18z m27 -432 c-3 -58 -10 -83
-41 -145 -21 -41 -55 -97 -76 -125 -50 -66 -109 -187 -104 -214 2 -15 -1 -20
-9 -15 -7 5 -8 3 -4 -5 5 -7 5 -28 1 -48 -6 -33 -7 -34 -20 -17 -14 18 -14 18
-15 1 0 -10 -7 -20 -15 -23 -18 -7 -62 -99 -67 -139 -2 -17 -5 -32 -8 -35 -11
-11 -26 -66 -22 -79 4 -11 6 -11 13 0 6 10 9 4 9 -18 0 -17 -4 -35 -10 -38 -6
-4 -7 1 -3 11 4 12 3 15 -5 10 -7 -4 -12 -1 -12 9 0 11 -6 14 -24 9 -23 -6
-29 2 -87 123 -33 70 -76 165 -95 211 -18 46 -43 95 -54 109 -28 36 -25 49 12
57 17 3 37 11 45 17 17 15 17 53 -1 68 -8 6 -20 26 -27 44 -7 18 -21 42 -32
55 -11 12 -18 22 -14 22 3 0 -21 25 -53 56 -71 68 -90 105 -90 178 0 55 16 77
27 37 3 -11 18 -25 35 -32 16 -7 36 -23 45 -36 8 -12 23 -23 32 -23 9 0 21 -4
27 -8 18 -16 183 -82 205 -82 12 0 30 6 38 13 9 8 44 24 78 37 34 12 68 28 74
36 6 8 19 14 29 14 9 0 20 3 24 8 4 4 11 7 14 7 4 0 24 12 45 25 25 17 36 31
33 43 -2 9 0 17 5 17 5 0 9 -8 10 -17 0 -17 1 -17 8 0 4 10 10 18 14 17 4 0
18 10 30 24 l22 25 8 -57 c4 -31 7 -88 5 -127z m-1298 -239 c0 -2 -8 -10 -17
-17 -16 -13 -17 -12 -4 4 13 16 21 21 21 13z m518 -7 c-2 -6 -8 -10 -13 -10
-5 0 -11 4 -13 10 -2 6 4 11 13 11 9 0 15 -5 13 -11z m1503 -36 c-12 -20 -14
-14 -5 12 4 9 9 14 11 11 3 -2 0 -13 -6 -23z m-481 -30 c-11 -17 -11 -17 -6 0
3 10 6 24 7 30 0 9 2 9 5 0 3 -7 0 -20 -6 -30z m-1583 -290 c-3 -10 -5 -2 -5
17 0 19 2 27 5 18 2 -10 2 -26 0 -35z m720 5 c-3 -8 -6 -5 -6 6 -1 11 2 17 5
13 3 -3 4 -12 1 -19z m1717 -43 c-4 -8 -11 -12 -16 -9 -6 4 -5 10 3 15 19 12
19 11 13 -6z m56 -29 c0 -3 -4 -8 -10 -11 -5 -3 -10 -1 -10 4 0 6 5 11 10 11
6 0 10 -2 10 -4z m0 -66 c0 -5 -2 -10 -4 -10 -3 0 -8 5 -11 10 -3 6 -1 10 4
10 6 0 11 -4 11 -10z m-1522 -404 c13 -28 7 -36 -25 -36 -15 0 -23 6 -23 18 0
14 2 15 10 2 8 -13 10 -12 11 5 1 11 1 23 0 28 -3 17 17 5 27 -17z m-1542
-272 c-30 -21 -42 -17 -15 5 13 11 26 17 29 14 3 -2 -4 -11 -14 -19z m-146
-108 c0 -3 -4 -8 -10 -11 -5 -3 -10 -1 -10 4 0 6 5 11 10 11 6 0 10 -2 10 -4z
m-50 -41 c-7 -8 -17 -15 -23 -15 -6 0 -2 7 9 15 25 19 30 19 14 0z m3405 -145
c10 -11 13 -20 7 -20 -6 0 -16 9 -22 20 -6 11 -9 20 -7 20 2 0 12 -9 22 -20z
m-1646 -64 c7 -8 8 -17 3 -20 -6 -3 -12 3 -15 14 -6 24 -4 25 12 6z m-35 -18
c-3 -4 -9 -8 -15 -8 -5 0 -9 4 -9 8 0 5 7 9 15 9 8 0 12 -4 9 -9z m-1706 -95
c29 -26 28 -30 -12 -37 -16 -3 -37 -13 -47 -22 -28 -25 -31 -14 -13 42 21 62
37 85 43 59 1 -10 15 -28 29 -42z m702 17 c0 -5 -8 -10 -17 -10 -15 0 -16 2
-3 10 19 12 20 12 20 0z m-620 -34 c0 -2 -7 -7 -16 -10 -8 -3 -12 -2 -9 4 6
10 25 14 25 6z m2264 -692 c3 -8 2 -12 -4 -9 -6 3 -10 10 -10 16 0 14 7 11 14
-7z m-833 -47 c-6 -8 -7 -18 -3 -22 4 -5 1 -5 -5 -1 -7 4 -21 2 -30 -3 -10 -6
-12 -11 -5 -11 6 0 12 -4 12 -9 0 -10 -61 -34 -68 -27 -2 3 -11 -1 -19 -9 -8
-8 -22 -15 -32 -15 -10 0 -40 -11 -66 -25 -37 -18 -51 -21 -57 -12 -5 8 -8 8
-8 1 0 -7 -11 -14 -25 -16 -19 -4 -23 -2 -15 7 5 6 7 15 3 18 -3 4 5 7 18 8
46 1 69 6 76 14 5 4 -2 6 -14 3 -13 -4 -27 0 -34 8 -10 12 -14 12 -25 -3 -7
-10 -14 -14 -14 -10 0 5 -12 -1 -27 -13 -30 -23 -49 -10 -32 22 8 14 6 16 -8
12 -12 -4 -10 1 7 14 22 19 25 19 37 4 7 -10 13 -12 13 -7 1 26 16 35 48 26
18 -5 32 -6 32 -1 0 4 8 10 18 13 9 2 26 8 36 13 15 6 17 4 11 -7 -7 -11 -6
-12 7 -2 8 7 17 12 19 10 2 -1 -1 3 -8 9 -8 7 -2 10 23 10 22 0 34 -5 34 -14
0 -7 5 -10 10 -7 6 4 22 9 37 11 15 3 34 9 42 14 22 13 25 12 12 -3z m79 3 c0
-5 -7 -10 -16 -10 -8 0 -12 5 -9 10 3 6 10 10 16 10 5 0 9 -4 9 -10z m-489
-57 c-9 -11 -18 -21 -21 -21 -25 1 -29 -4 -23 -33 l6 -32 -36 7 c-27 5 -37 3
-38 -6 0 -11 -2 -10 -6 0 -3 7 3 22 13 33 9 10 12 19 6 19 -6 0 -12 -4 -14 -9
-1 -5 -11 -4 -21 4 -17 12 -17 14 4 34 24 22 39 27 39 12 0 -13 46 -19 65 -8
13 7 14 11 5 17 -8 5 -4 8 12 7 24 -2 24 -3 9 -24z m736 -51 c-1 -15 -7 -26
-12 -25 -13 2 -18 30 -11 49 9 24 25 7 23 -24z m-900 14 c-3 -7 0 -19 6 -25 8
-8 8 -11 -1 -11 -7 0 -12 4 -12 9 0 12 -18 9 -47 -7 -13 -7 -23 -9 -23 -4 0 5
17 18 38 29 46 26 45 26 39 9z m171 -14 c-10 -2 -18 -11 -19 -20 0 -11 -2 -13
-6 -4 -9 22 5 42 24 35 17 -7 17 -8 1 -11z m694 -44 c-5 -22 -9 -22 -29 -3 -8
8 -19 13 -23 10 -5 -3 -14 4 -20 15 -7 13 -7 20 0 20 5 0 10 -5 10 -11 0 -6 9
-4 22 5 19 14 23 14 33 -1 7 -9 10 -25 7 -35z m-722 -146 c23 -14 24 -14 12 1
-13 15 -10 16 24 11 21 -2 50 -12 64 -22 l25 -17 -24 -3 c-19 -3 -21 -6 -10
-13 27 -17 -33 -9 -143 19 -59 15 -109 30 -113 33 -3 3 11 6 31 7 20 1 39 4
42 7 9 9 64 -5 92 -23z m270 24 c0 -2 -7 -7 -16 -10 -8 -3 -12 -2 -9 4 6 10
25 14 25 6z m102 -48 c-11 -33 -21 -43 -38 -44 -20 -2 -22 1 -14 22 6 16 6 24
-1 24 -5 0 -4 6 3 14 8 9 17 11 24 5 8 -6 13 -2 17 12 3 11 10 18 15 15 6 -3
3 -23 -6 -48z m-232 19 c11 -5 9 -6 -4 -4 -11 1 -21 9 -23 17 -3 10 -2 11 4 4
4 -6 15 -14 23 -17z m120 -8 c-5 -9 -16 -22 -25 -29 -13 -11 -15 -10 -9 4 7
17 -11 23 -21 6 -3 -5 -11 -10 -16 -10 -6 0 -7 5 -3 12 5 8 0 9 -14 6 -12 -4
-22 -4 -22 -2 0 9 63 29 90 29 22 0 26 -3 20 -16z m213 11 c9 0 17 -6 17 -14
0 -8 6 -17 13 -19 6 -3 0 -6 -15 -6 -16 -1 -28 -6 -28 -11 0 -16 -43 -29 -57
-18 -15 12 -17 48 -3 48 6 0 9 3 9 8 -3 19 3 24 24 18 12 -3 30 -6 40 -6z m77
-26 c0 -18 -14 -18 -29 0 -9 11 -9 15 1 19 17 6 28 -1 28 -19z m-256 0 c3 -9
2 -23 -4 -32 -8 -15 -9 -14 -10 5 0 17 -4 21 -17 16 -16 -6 -16 -5 -4 10 17
21 27 22 35 1z m-823 -176 c-4 -13 -6 -29 -3 -37 3 -8 0 -11 -7 -7 -6 4 -11
18 -11 31 0 20 6 27 27 34 1 1 -1 -9 -6 -21z m-30 -411 c-10 -9 -11 -8 -5 6 3
10 9 15 12 12 3 -3 0 -11 -7 -18z m1261 -89 c-9 -9 -15 -9 -24 0 -10 10 -10
15 2 22 20 12 38 -6 22 -22z m8 -39 c-12 -21 -31 -22 -37 -2 -2 6 6 13 19 16
13 2 24 5 26 6 1 0 -2 -8 -8 -20z m1243 -522 c4 -28 3 -37 -6 -34 -7 2 -11 11
-9 20 1 9 -8 19 -23 24 l-26 8 22 29 c21 26 23 27 29 10 4 -11 10 -36 13 -57z
m-2525 -7 c18 -7 31 -14 29 -16 -2 -3 -21 3 -42 11 -41 18 -61 11 -31 -11 18
-12 18 -14 3 -14 -10 0 -20 7 -23 15 -4 8 -11 12 -17 8 -7 -4 -8 0 -4 11 4 10
7 25 7 34 0 13 4 12 23 -5 12 -11 37 -26 55 -33z m-30 -115 c-2 -11 -10 -20
-18 -20 -17 0 -25 37 -15 63 6 15 8 15 21 -3 8 -11 13 -29 12 -40z m2572 -33
c0 -15 -2 -15 -10 -2 -13 20 -13 33 0 25 6 -3 10 -14 10 -23z m-2641 -64 c0
-7 -4 -22 -9 -33 -7 -17 -9 -15 -9 13 -1 17 4 32 9 32 6 0 10 -6 9 -12z"/>
<path d="M6461 5281 c-6 -10 -7 -21 -4 -25 3 -3 -2 -6 -13 -7 -19 0 -19 -1 0
-8 21 -8 71 33 61 50 -10 15 -34 10 -44 -10z"/>
<path d="M6595 5290 c-8 -14 13 -40 32 -40 20 0 12 44 -9 48 -9 2 -19 -2 -23
-8z"/>
<path d="M6545 5279 c-10 -15 3 -25 16 -12 7 7 7 13 1 17 -6 3 -14 1 -17 -5z"/>
<path d="M6488 5213 c-10 -2 -18 -9 -18 -14 0 -5 -4 -9 -10 -9 -5 0 -34 -16
-64 -35 -56 -35 -89 -72 -80 -86 3 -5 0 -18 -6 -29 -17 -31 -3 -40 33 -22 17
9 42 15 54 13 12 -1 31 2 41 8 22 12 174 27 244 24 30 -1 59 -9 77 -22 39 -28
44 -27 36 12 -12 57 -15 64 -41 75 -34 16 -36 15 -29 -9 7 -20 5 -21 -35 -14
-23 4 -54 9 -69 10 -14 2 -45 8 -69 13 -24 5 -45 6 -48 1 -3 -5 -17 -9 -32 -9
-15 0 -36 -7 -46 -15 -28 -21 -42 -18 -22 4 10 11 38 29 62 40 35 17 44 26 44
46 0 14 -1 24 -2 24 -2 -1 -11 -3 -20 -6z"/>
<path d="M6551 5181 c-8 -6 -9 -11 -3 -15 6 -3 14 -1 17 5 9 14 2 20 -14 10z"/>
<path d="M6509 5008 c-9 -28 -6 -58 6 -68 8 -7 15 -19 15 -26 0 -17 2 -17 35
-2 16 7 25 19 25 34 0 12 6 24 13 27 6 2 0 8 -15 12 -16 4 -28 11 -28 16 0 8
-48 14 -51 7z"/>
<path d="M5989 4544 c-43 -45 -43 -46 -12 -30 31 16 71 62 61 71 -2 3 -24 -16
-49 -41z"/>
<path d="M4906 3485 c-3 -10 -2 -23 4 -29 15 -15 22 -2 12 24 -8 21 -9 22 -16
5z"/>
<path d="M5690 2456 c0 -10 8 -16 22 -16 12 0 19 1 17 3 -2 1 -12 9 -21 16
-15 12 -18 11 -18 -3z"/>
<path d="M7405 1800 c4 -6 11 -8 16 -5 14 9 11 15 -7 15 -8 0 -12 -5 -9 -10z"/>
<path d="M5383 1404 c-7 -7 -13 -18 -13 -24 0 -15 20 -12 26 5 9 22 0 35 -13
19z"/>
<path d="M5372 1335 c0 -16 2 -22 5 -12 2 9 2 23 0 30 -3 6 -5 -1 -5 -18z"/>
</g>
</svg>
